<?xml version="1.0" ?><!DOCTYPE svg  PUBLIC '-//W3C//DTD SVG 1.1//EN'  'http://www.w3.org/Graphics/SVG/1.1/DTD/svg11.dtd'><svg enable-background="new 0 0 91 91" height="91px" id="Layer_1" version="1.1" viewBox="0 0 91 91" width="91px" xml:space="preserve" xmlns="http://www.w3.org/2000/svg" xmlns:xlink="http://www.w3.org/1999/xlink"><g><g><g><g><path d="M53.219,66.131c-1.598,0.371-3.383,0.615-5.307,0.721c-5.246,0.299-9.854-0.49-9.9-0.498      c-1.369-0.24-2.668,0.676-2.906,2.043c-0.238,1.365,0.674,2.666,2.039,2.906c0.176,0.031,3.717,0.643,8.305,0.643      c0.881,0,1.803-0.021,2.744-0.076c2.211-0.123,4.283-0.406,6.164-0.844c1.352-0.314,2.191-1.666,1.877-3.018      S54.568,65.818,53.219,66.131z"/><path d="M63.219,4.771c-5.156-3.146-10.758-4.502-16.65-4.693c-5.217-0.18-10.246,0.498-14.988,2.633      c-0.02,0.008-0.039,0.02-0.061,0.027c-0.469,0.213-0.941,0.424-1.406,0.66c-5.545,2.807-10.096,6.791-13.596,11.846      c-0.018,0.025-0.037,0.049-0.053,0.076c-0.652,0.943-1.279,1.912-1.855,2.932c-2.9,5.143-4.432,10.539-4.549,16.039      c-0.082,3.898,0.088,7.84,0.506,11.715c0.723,6.695,2.018,12.549,3.963,17.9c3.328,9.146,9.785,15.926,14.613,20      c4.035,3.408,7.307,5.889,12.695,6.773c1.221,0.199,2.357,0.297,3.477,0.297c4.861,0,8.605-1.973,11.928-4.102      c8.4-5.383,14.984-13.229,18.541-22.092c3.418-8.527,5.088-17.752,5.105-28.234c-0.004-0.332,0.002-0.66,0.008-0.99      c0.01-0.6,0.018-1.199-0.012-1.801c-0.281-5.869-2.09-11.523-5.375-16.803C72.393,11.943,68.256,7.844,63.219,4.771z       M35.053,6.701c2.553-0.992,5.197-1.27,7.906-1.5v14.807l-7.906-3.385V6.701z M23.379,19.207v3.816h-5.563      c0.359-0.771,0.74-1.539,1.17-2.301c0.293-0.52,0.611-1.018,0.928-1.516H23.379z M19.432,62.646h6.99v11.512      C23.723,71,21.143,67.141,19.432,62.646z M75.871,35.477c-0.006,0.375-0.012,0.75-0.008,1.096      c-0.016,9.801-1.568,18.418-4.744,26.34c-3.17,7.902-9.061,14.908-16.588,19.732c-2.596,1.662-4.588,2.592-6.547,3.018v-8.803      c0-1.389-1.125-2.514-2.514-2.514c-1.387,0-2.512,1.125-2.512,2.514v8.9c-0.105-0.016-0.201-0.021-0.309-0.039      c-4.137-0.678-6.637-2.588-10.266-5.654c-0.305-0.258-0.619-0.529-0.938-0.811V60.133c0-1.387-1.125-2.512-2.514-2.512H17.809      c-1.025-3.723-1.77-7.732-2.246-12.154c-0.395-3.662-0.557-7.387-0.479-11.068c0.045-2.135,0.357-4.254,0.908-6.35h9.9      c1.387,0,2.512-1.125,2.512-2.514v-8.84c0-1.389-1.125-2.514-2.512-2.514h-2.035c1.832-1.904,3.887-3.57,6.17-4.973v9.07      c0,1.006,0.6,1.914,1.523,2.311l11.408,4.885v7.645c0,1.389,1.125,2.514,2.512,2.514c1.389,0,2.514-1.125,2.514-2.514v-9.285      c0-0.004,0-0.006,0-0.01V5.201c4.438,0.389,8.676,1.455,12.617,3.861c4.361,2.66,7.943,6.209,10.643,10.547      c2.826,4.543,4.381,9.385,4.621,14.391C75.889,34.494,75.879,34.986,75.871,35.477z"/><path d="M41.967,61.326c0.455,0.842,1.32,1.32,2.215,1.32c0.402,0,0.811-0.098,1.189-0.301c2.625-1.416,4.891-2.809,4.986-2.867      c1.182-0.727,1.549-2.275,0.82-3.457c-0.727-1.18-2.273-1.549-3.455-0.822c-0.023,0.014-2.244,1.379-4.734,2.723      C41.766,58.58,41.309,60.104,41.967,61.326z"/><path d="M52.514,35.977c-6.285,3.701-6.818,10.184-6.672,14.736c0.045,1.359,1.16,2.432,2.51,2.432      c0.027,0,0.055-0.002,0.082-0.002c1.389-0.045,2.477-1.205,2.432-2.592c-0.145-4.496,0.672-7.301,2.758-9.189      c-0.014,0.158-0.025,0.318-0.025,0.48c0,3.32,2.701,6.021,6.02,6.021c3.314,0,6.012-2.693,6.021-6.004      c1.088,0.908,1.756,1.723,1.838,1.824c0.861,1.084,2.438,1.266,3.523,0.406c1.088-0.861,1.273-2.441,0.412-3.529      C68.48,36.854,60.758,31.127,52.514,35.977z M59.617,42.838c-0.549,0-0.994-0.447-0.994-0.996s0.445-0.996,0.994-0.996      s0.996,0.447,0.996,0.996S60.166,42.838,59.617,42.838z"/><path d="M43.566,42.119c0-6.08-4.945-11.027-11.025-11.027s-11.027,4.947-11.027,11.027c0,6.078,4.947,11.025,11.027,11.025      S43.566,48.197,43.566,42.119z M32.541,48.119c-3.309,0-6.002-2.691-6.002-6s2.693-6.002,6.002-6.002s6,2.693,6,6.002      S35.85,48.119,32.541,48.119z"/><path d="M32.568,39.605h-0.01c-1.387,0-2.506,1.125-2.506,2.514c0,1.387,1.129,2.512,2.516,2.512      c1.389,0,2.514-1.125,2.514-2.512C35.082,40.73,33.957,39.605,32.568,39.605z"/><path d="M55.146,31.51c2.469-0.807,8.807-0.578,11.906,0.756c0.324,0.141,0.66,0.205,0.992,0.205c0.973,0,1.9-0.568,2.309-1.518      c0.549-1.275-0.039-2.752-1.313-3.303c-4.047-1.742-11.559-2.189-15.453-0.918c-1.32,0.432-2.039,1.85-1.609,3.168      C52.41,31.221,53.83,31.939,55.146,31.51z"/></g></g></g></g></svg>