<?xml version="1.0" ?><!DOCTYPE svg  PUBLIC '-//W3C//DTD SVG 1.1//EN'  'http://www.w3.org/Graphics/SVG/1.1/DTD/svg11.dtd'><svg height="512px" style="enable-background:new 0 0 512 512;" version="1.1" viewBox="0 0 512 512" width="512px" xml:space="preserve" xmlns="http://www.w3.org/2000/svg" xmlns:xlink="http://www.w3.org/1999/xlink"><g id="_x35_97_x2C__Beat_x2C__heart_x2C__monitor_x2C__pulse"><g><g><g><path d="M486.348,390.956h-460c-5.523,0-10-4.478-10-10v-360c0-5.523,4.477-10,10-10h460c5.522,0,10,4.477,10,10v360      C496.348,386.479,491.87,390.956,486.348,390.956z M36.347,370.956h440v-340h-440V370.956z"/></g><g><path d="M486.348,500.956h-460c-5.523,0-10-4.478-10-10v-110c0-5.522,4.477-10,10-10h460c5.522,0,10,4.478,10,10v110      C496.348,496.479,491.87,500.956,486.348,500.956z M36.347,480.956h440v-90h-440V480.956z"/></g><g><path d="M396.349,130.957c-0.093,0-0.186-0.001-0.278-0.004c-3.244-0.09-6.243-1.749-8.043-4.449l-31.68-47.519l-31.68,47.519      c-1.854,2.782-4.977,4.453-8.32,4.453s-6.466-1.671-8.32-4.453l-31.68-47.52l-31.68,47.52c-1.854,2.782-4.977,4.453-8.32,4.453      s-6.466-1.671-8.32-4.453l-31.68-47.519l-31.68,47.519c-1.854,2.782-4.977,4.453-8.32,4.453s-6.466-1.671-8.32-4.453      l-33.234-49.851L93.418,98.028c-1.875,1.875-4.419,2.929-7.071,2.929h-60c-5.523,0-10-4.477-10-10s4.477-10,10-10h55.858      l27.071-27.071c2.119-2.119,5.071-3.178,8.057-2.88c2.981,0.295,5.673,1.912,7.335,4.404l31.68,47.519l31.68-47.519      c1.854-2.782,4.977-4.453,8.32-4.453s6.466,1.671,8.32,4.453l31.68,47.519l31.68-47.519c1.854-2.782,4.977-4.453,8.32-4.453      s6.466,1.671,8.32,4.453l31.68,47.519l31.68-47.519c1.854-2.782,4.977-4.453,8.32-4.453s6.466,1.671,8.32,4.453l32.16,48.24      l21.52-28.693c1.889-2.518,4.853-4,8-4h60c5.522,0,10,4.477,10,10s-4.478,10-10,10h-55l-27,36      C402.456,129.479,399.49,130.957,396.349,130.957z"/></g><g><path d="M116.347,240.957c-2.639,0-5.186-1.044-7.071-2.929l-27.071-27.071H26.347c-5.523,0-10-4.477-10-10s4.477-10,10-10h60      c2.652,0,5.196,1.054,7.071,2.929l21.375,21.375l33.234-49.851c1.854-2.782,4.977-4.453,8.32-4.453s6.466,1.671,8.32,4.453      l31.68,47.519l31.68-47.519c1.854-2.782,4.977-4.453,8.32-4.453s6.466,1.671,8.32,4.453l31.68,47.52l31.68-47.52      c1.854-2.782,4.977-4.453,8.32-4.453s6.466,1.671,8.32,4.453l31.68,47.519l31.68-47.519c1.8-2.701,4.799-4.359,8.043-4.449      c3.25-0.082,6.33,1.399,8.277,3.996l27,36h55c5.522,0,10,4.477,10,10s-4.478,10-10,10h-60c-3.147,0-6.111-1.482-8-4      l-21.52-28.693l-32.16,48.24c-1.854,2.782-4.977,4.453-8.32,4.453s-6.466-1.671-8.32-4.453l-31.68-47.519l-31.68,47.519      c-1.854,2.782-4.977,4.453-8.32,4.453s-6.466-1.671-8.32-4.453l-31.68-47.519l-31.68,47.519      c-1.854,2.782-4.977,4.453-8.32,4.453s-6.466-1.671-8.32-4.453l-31.68-47.519l-31.68,47.519      c-1.662,2.493-4.354,4.109-7.335,4.404C117.003,240.94,116.674,240.957,116.347,240.957z"/></g><g><path d="M116.347,350.956c-2.639,0-5.186-1.045-7.071-2.929l-27.071-27.071H26.347c-5.523,0-10-4.478-10-10s4.477-10,10-10h60      c2.652,0,5.196,1.054,7.071,2.929l21.375,21.375l33.234-49.851c1.854-2.782,4.977-4.453,8.32-4.453s6.466,1.671,8.32,4.453      l31.68,47.52l31.68-47.52c1.854-2.782,4.977-4.453,8.32-4.453s6.466,1.671,8.32,4.453l31.68,47.52l31.68-47.52      c1.854-2.782,4.977-4.453,8.32-4.453s6.466,1.671,8.32,4.453l31.68,47.52l31.68-47.52c1.8-2.7,4.799-4.359,8.043-4.449      c3.25-0.096,6.33,1.399,8.277,3.996l27,36h55c5.522,0,10,4.478,10,10s-4.478,10-10,10h-60c-3.147,0-6.111-1.481-8-4      l-21.52-28.692l-32.16,48.239c-1.854,2.782-4.977,4.453-8.32,4.453s-6.466-1.671-8.32-4.453l-31.68-47.52l-31.68,47.52      c-1.854,2.782-4.977,4.453-8.32,4.453s-6.466-1.671-8.32-4.453l-31.68-47.52l-31.68,47.52c-1.854,2.782-4.977,4.453-8.32,4.453      s-6.466-1.671-8.32-4.453l-31.68-47.52l-31.68,47.52c-1.662,2.493-4.354,4.109-7.335,4.404      C117.003,350.94,116.674,350.956,116.347,350.956z"/></g><g><path d="M326.348,460.956h-40c-5.522,0-10-4.478-10-10v-30c0-5.522,4.478-10,10-10h40c5.522,0,10,4.478,10,10v30      C336.348,456.479,331.87,460.956,326.348,460.956z M296.348,440.956h20v-10h-20V440.956z"/></g><g><path d="M446.348,460.956h-80c-5.522,0-10-4.478-10-10v-30c0-5.522,4.478-10,10-10h80c5.522,0,10,4.478,10,10v30      C456.348,456.479,451.87,460.956,446.348,460.956z M376.348,440.956h60v-10h-60V440.956z"/></g></g></g></g><g id="Layer_1"/></svg>